<?xml version="1.0" standalone="no"?>
<!DOCTYPE svg PUBLIC "-//W3C//DTD SVG 20010904//EN"
 "http://www.w3.org/TR/2001/REC-SVG-20010904/DTD/svg10.dtd">
<svg version="1.0" xmlns="http://www.w3.org/2000/svg"
 width="360.000000pt" height="360.000000pt" viewBox="0 0 360.000000 360.000000"
 preserveAspectRatio="xMidYMid meet">
<metadata>
Created by potrace 1.11, written by Peter Selinger 2001-2013
</metadata>
<g transform="translate(0.000000,360.000000) scale(0.100000,-0.100000)"
fill="#000000" stroke="none">
<path d="M2397 3588 c-10 -5 -17 -7 -17 -4 0 3 -16 -9 -35 -27 -72 -67 -86
-164 -40 -287 67 -184 65 -174 61 -311 -2 -71 0 -129 3 -129 14 0 87 59 111
90 14 18 30 37 35 44 21 24 63 124 79 188 22 89 23 218 3 288 -15 49 -77 159
-77 136 0 -5 -6 -3 -13 3 -18 15 -90 21 -110 9z"/>
<path d="M1635 2950 c-18 -9 -41 -37 -56 -67 -50 -97 -36 -260 41 -482 48
-142 49 -156 10 -176 -30 -15 -30 -15 -78 32 -26 27 -55 59 -65 73 -52 76
-187 251 -218 283 -20 20 -52 43 -71 52 -33 13 -38 13 -57 -3 -29 -25 -49 -83
-47 -136 2 -43 6 -51 59 -99 62 -59 74 -96 40 -134 -27 -29 -68 -44 -83 -30
-10 9 -11 9 -5 -2 5 -10 3 -12 -11 -8 -11 4 -32 9 -49 13 -74 17 -136 65 -230
178 -49 59 -140 126 -171 126 -13 0 -25 3 -28 8 -6 10 -75 7 -106 -6 -14 -5
-28 -9 -31 -8 -8 2 -82 -75 -102 -106 -19 -30 -22 -83 -8 -121 13 -33 69 -85
109 -99 17 -7 32 -15 32 -19 0 -4 10 -9 22 -12 13 -3 48 -12 80 -21 91 -25
171 -39 221 -39 20 0 37 -5 37 -10 0 -5 6 -7 13 -4 7 2 32 1 57 -3 25 -5 61
-11 80 -14 57 -10 200 -58 200 -67 0 -7 -37 -86 -46 -98 -5 -6 -64 19 -134 58
-36 20 -67 36 -70 36 -3 1 -14 6 -25 12 -11 6 -34 13 -52 16 -17 3 -37 8 -42
12 -6 3 -11 2 -11 -2 0 -5 -9 -9 -20 -10 -28 -2 -74 -37 -102 -76 -18 -25 -23
-47 -24 -98 -1 -44 -7 -75 -19 -92 -9 -15 -19 -27 -22 -27 -2 0 -25 12 -50 26
-25 14 -60 27 -78 28 -18 2 -36 6 -42 9 -8 5 -42 3 -50 -3 -2 -1 -15 -2 -30
-3 -16 0 -30 -3 -33 -7 -10 -12 -78 -40 -98 -40 -50 0 -144 -50 -194 -105 -79
-86 -65 -236 31 -322 l40 -35 -28 -37 c-38 -50 -49 -80 -46 -126 9 -125 90
-163 260 -121 6 2 27 6 47 11 21 4 38 11 38 17 0 5 4 7 9 4 11 -7 141 44 141
56 0 5 5 8 11 6 17 -6 92 72 108 110 7 18 17 32 22 32 5 0 18 -19 29 -43 39
-84 144 -87 222 -6 29 30 42 31 116 10 70 -20 71 -15 -41 -214 -68 -122 -97
-201 -104 -283 -5 -65 -3 -74 21 -111 34 -51 97 -83 164 -83 28 0 53 4 57 10
3 5 12 7 20 3 8 -3 15 0 15 6 0 6 6 11 14 11 21 0 94 86 170 200 86 129 130
178 183 201 41 17 89 17 107 -1 9 -9 10 -71 1 -110 -3 -14 -9 -50 -12 -80 -6
-66 8 -84 64 -83 45 1 69 24 105 100 29 61 92 136 135 161 25 13 72 16 89 4
27 -17 38 -59 49 -183 9 -103 25 -172 47 -205 23 -33 84 -78 92 -66 2 4 20 7
40 6 20 -1 36 2 36 7 0 5 5 9 12 9 19 0 77 50 93 80 29 55 20 105 -40 222 -50
97 -60 133 -56 190 3 43 97 118 139 112 6 -1 18 -2 25 -3 21 -2 97 -78 163
-161 32 -41 65 -81 74 -90 15 -15 90 -64 100 -66 3 0 23 -8 45 -18 22 -9 52
-18 67 -19 16 -1 28 -6 28 -10 0 -5 5 -5 12 -1 6 4 23 8 37 10 46 4 60 9 97
39 99 79 100 248 2 330 -73 62 -125 73 -308 66 -41 -2 -78 -2 -82 -1 -15 5
-28 8 -42 9 -26 2 -76 58 -76 84 0 50 126 129 230 143 69 10 220 11 220 2 0
-5 5 -6 12 -2 6 4 39 8 73 9 66 3 135 21 135 36 0 5 6 9 13 9 21 0 79 76 99
128 11 28 18 74 18 113 l0 67 33 6 c17 3 35 6 40 6 15 0 66 53 75 79 12 37 8
70 -21 201 -15 64 -29 163 -32 220 -8 150 -19 196 -59 229 -41 34 -161 -6
-203 -69 -28 -41 -29 -84 -3 -133 36 -67 19 -112 -45 -118 -52 -5 -68 11 -67
69 1 28 2 54 3 59 7 43 -26 95 -66 101 -115 17 -175 -16 -190 -104 -1 -11 -9
-17 -16 -16 -8 2 -23 5 -34 6 -45 5 -47 16 -12 59 79 97 143 221 159 307 20
105 -16 168 -118 204 -86 30 -173 -2 -254 -91 -36 -40 -150 -204 -150 -217 0
-10 -116 -207 -147 -249 -40 -54 -87 -84 -107 -68 -7 6 -16 8 -19 5 -7 -8 -30
14 -44 41 -15 29 -8 56 40 153 33 69 42 98 41 137 -1 71 -38 138 -89 160 -58
24 -109 3 -138 -58 -18 -37 -12 -79 17 -136 30 -57 21 -143 -20 -198 -28 -37
-57 -45 -99 -25 -114 54 -168 242 -108 372 34 72 34 117 3 163 -35 52 -100 67
-155 37z"/>
<path d="M1520 499 c-46 -40 -150 -112 -150 -103 0 3 -6 2 -12 -4 -7 -6 -16
-11 -21 -11 -4 0 -22 -8 -40 -17 -71 -37 -137 -140 -137 -216 0 -46 26 -107
49 -116 9 -3 19 -10 22 -15 4 -5 26 -10 50 -12 49 -3 116 29 155 74 35 39 102
178 119 246 20 83 25 206 8 205 -5 -1 -24 -15 -43 -31z"/>
</g>
</svg>
